<svg id="Layer_1" height="512" viewBox="0 0 512 512" width="512" xmlns="http://www.w3.org/2000/svg" data-name="Layer 1"><path d="m256.676 261.056a54 54 0 1 0 54 54 54.061 54.061 0 0 0 -54-54zm0 96a42 42 0 1 1 42-42 42.047 42.047 0 0 1 -42 42z"/><path d="m464 15h-416a36.046 36.046 0 0 0 -36 36.008v291.958a36.069 36.069 0 0 0 36 36.034h74.338l-44.966 45.114a6 6 0 0 0 0 8.468l62.337 62.647a6.006 6.006 0 0 0 4.248 1.771 6 6 0 0 0 4.25-1.769l89.426-89.726a6 6 0 0 0 3.844-2.037l6.863-7.956a81.811 81.811 0 0 0 18.9-.49l7.35 7.666a6 6 0 0 0 6.736 1.343l12.381-5.417c8.76 10.987 14.748 19.185 17.3 22.747a63.635 63.635 0 0 0 62.303 75.639 64.192 64.192 0 0 0 12.843-1.3 6 6 0 0 0 3.055-10.109l-37.133-37.343 9.341-26.843 26.875-9.352 37.453 36.647a6 6 0 0 0 10.086-3.142 63.475 63.475 0 0 0 -29.63-66.558h57.8a36.071 36.071 0 0 0 36-36.034v-291.958a36.048 36.048 0 0 0 -36-36.008zm-373.91 413.353 41.4-41.539 5.374 5.421a6 6 0 0 0 8.522-8.449l-5.425-5.472 30.705-30.806 7.227 16.518a5.938 5.938 0 0 0 .331.621l-75.824 76.077zm80.987-250.425-30.736-30.911a51.537 51.537 0 1 1 -53.3 53.821l30.93 30.262a6 6 0 0 0 6.169 1.378l33.126-11.528a6 6 0 0 0 3.7-3.695l11.528-33.127a6 6 0 0 0 -1.417-6.2zm25.1 47.392q5.282 6.651 10.675 13.216a5.991 5.991 0 0 0 -2.466 5.28l.778 10.583a74.066 74.066 0 0 0 -13.064 13.714l-10.557-.309a5.84 5.84 0 0 0 -1.579.169c-5.48-4.537-10.381-8.5-14.556-11.822a63.706 63.706 0 0 0 30.764-30.831zm-85.312 223.909 82.018-82.29 1.53-.113a73.976 73.976 0 0 0 11.731 11.555l-82.956 83.231zm62.339 3.922-4.2-4.229a6 6 0 0 0 -8.511 8.461l4.243 4.267-20.77 20.839-12.311-12.371 45.1-45.247a5.981 5.981 0 0 0 .479 7.868l8.146 8.2zm41.281-41.418-4.205-4.233a6 6 0 0 0 -8.511 8.461l4.245 4.269-12.168 12.21-8.1-8.158a5.98 5.98 0 0 0 -7.925-.482l30.552-30.654a6 6 0 0 0 3.283 3.076l13.21 5.1zm82.567-41.754a6 6 0 0 0 -2.417 5.264l.7 9.558-14.989 6.557-6.632-6.916a6.007 6.007 0 0 0 -5.411-1.749 70.031 70.031 0 0 1 -21.673.561 6.007 6.007 0 0 0 -5.317 2.031l-6.163 7.145-15.217-5.874.281-9.547a6 6 0 0 0 -2.669-5.169 62.15 62.15 0 0 1 -15.541-14.8 5.969 5.969 0 0 0 -5.264-2.416l-9.557.7-6.559-14.989 6.916-6.633a6 6 0 0 0 1.749-5.41 70.069 70.069 0 0 1 -.561-21.674 6 6 0 0 0 -2.03-5.316l-7.144-6.164 5.873-15.217 9.547.28a5.971 5.971 0 0 0 5.169-2.669 62.163 62.163 0 0 1 14.8-15.541 6 6 0 0 0 2.417-5.264l-.7-9.557 14.989-6.557 6.632 6.915a6.006 6.006 0 0 0 5.41 1.749 70.064 70.064 0 0 1 21.678-.559 6.016 6.016 0 0 0 5.316-2.032l6.164-7.144 15.216 5.873-.281 9.547a6 6 0 0 0 2.67 5.169 62.162 62.162 0 0 1 15.54 14.8 5.977 5.977 0 0 0 5.264 2.416l9.558-.7 6.557 14.99-6.915 6.633a6 6 0 0 0 -1.75 5.41 70.063 70.063 0 0 1 .561 21.673 6 6 0 0 0 2.029 5.315l7.143 6.165-5.873 15.218-9.547-.28a5.967 5.967 0 0 0 -5.168 2.668 62.13 62.13 0 0 1 -14.801 15.54zm13.448-151.871-5.417-5.465 32.811-32.92 6.271 6.32a6 6 0 1 0 8.519-8.451l-6.318-6.368 21.667-21.74 12.311 12.371-76.715 76.97a6 6 0 0 0 -3.283-3.074l-13.212-5.1 9.478-9.509 5.366 5.413a6 6 0 0 0 8.522-8.448zm56.383 32.175 4.252 4.278-12.165 12.208-8.113-8.166a5.98 5.98 0 0 0 -7.838-.553l40.029-40.162a5.987 5.987 0 0 0 .575 7.752l8.156 8.21-12.17 12.211-4.214-4.239a6 6 0 0 0 -8.51 8.461zm-24.539 16.777 8.154 8.208-9.165 9.2-7.225-16.517a6.288 6.288 0 0 0 -.333-.623l8.014-8.04a5.984 5.984 0 0 0 .555 7.772zm41.975-50.447 25.281-25.363 12.31 12.371-21.658 21.73-8.114-8.168a5.982 5.982 0 0 0 -7.819-.57zm-65.2 48.421-1.527.112a74.025 74.025 0 0 0 -11.732-11.555l82.955-83.23 12.322 12.383zm-3.586 142.193c-2.731-3.657-6.259-8.284-10.525-13.68a5.994 5.994 0 0 0 2.613-5.391l-.778-10.583a73.967 73.967 0 0 0 13.057-13.713l10.557.31a5.872 5.872 0 0 0 2.207-.36c4.55 3.579 9.4 7.343 14.882 11.562a63.122 63.122 0 0 0 -27.133 23 64.319 64.319 0 0 0 -4.884 8.855zm108.428 15.882a51.594 51.594 0 0 1 1 8.026l-30.927-30.263a6 6 0 0 0 -6.168-1.379l-33.127 11.528a6 6 0 0 0 -3.694 3.7l-11.528 33.126a6 6 0 0 0 1.412 6.2l30.736 30.911a51.565 51.565 0 1 1 52.3-61.847zm64.039-80.143a24.057 24.057 0 0 1 -24 24.034h-107.653c-6.548-5.037-12.2-9.416-17.452-13.56l6.263-16.228a6 6 0 0 0 -1.677-6.7l-7.955-6.865a81.965 81.965 0 0 0 -.155-16.2l99.255-99.585a6 6 0 0 0 0-8.467l-62.337-62.634a5.989 5.989 0 0 0 -4.248-1.761 5.99 5.99 0 0 0 -4.25 1.755l-89.434 89.726a5.985 5.985 0 0 0 -3.832 2.027l-6.864 7.955a81.952 81.952 0 0 0 -18.9.488l-7.35-7.665a6 6 0 0 0 -6.735-1.343l-12.495 5.466c-5.907-7.138-11.755-14.408-17.455-21.7a63.545 63.545 0 0 0 -74.881-75.43 6 6 0 0 0 -3.055 10.11l37.133 37.343-9.341 26.843-26.875 9.353-37.453-36.654a6 6 0 0 0 -10.086 3.143 63.535 63.535 0 0 0 75.1 74.409c.177-.036.35-.084.527-.121 5.273 4.117 12.661 10 21.5 17.331l-6.455 16.726a6 6 0 0 0 1.678 6.7l7.956 6.864a81.946 81.946 0 0 0 .155 16.2l-42.329 42.474h-86.3a24.056 24.056 0 0 1 -24-24.034v-249.966h464zm0-261.966h-464v-29.992a24.033 24.033 0 0 1 24-24.008h416a24.034 24.034 0 0 1 24 24.008z"/><path d="m48.834 38.061a16.4 16.4 0 1 0 16.405 16.405 16.423 16.423 0 0 0 -16.405-16.405zm0 20.81a4.405 4.405 0 1 1 4.4-4.405 4.41 4.41 0 0 1 -4.4 4.405z"/><path d="m85.334 38.061a16.4 16.4 0 1 0 16.405 16.405 16.423 16.423 0 0 0 -16.405-16.405zm0 20.81a4.405 4.405 0 1 1 4.405-4.405 4.41 4.41 0 0 1 -4.405 4.405z"/><path d="m121.834 38.061a16.4 16.4 0 1 0 16.405 16.405 16.423 16.423 0 0 0 -16.405-16.405zm0 20.81a4.405 4.405 0 1 1 4.405-4.405 4.41 4.41 0 0 1 -4.405 4.405z"/><path d="m48 262.924a6 6 0 0 0 6-6v-93.958a6 6 0 0 0 -12 0v93.958a6 6 0 0 0 6 6z"/><path d="m48 145.966a6 6 0 0 0 6-6v-3.958a6 6 0 0 0 -12 0v3.958a6 6 0 0 0 6 6z"/></svg>