<svg xmlns="http://www.w3.org/2000/svg" xmlns:xlink="http://www.w3.org/1999/xlink" id="Layer_1" x="0px" y="0px" viewBox="0 0 479 210" style="enable-background:new 0 0 479 210;" xml:space="preserve">
<style type="text/css">
	.st0{fill:#203145;}
	.st1{fill:none;stroke:#203145;stroke-miterlimit:10;}
	.st2{fill:none;stroke:#203145;stroke-miterlimit:10;stroke-dasharray:4,4;}
	.st3{fill:none;stroke:#203145;stroke-linejoin:round;stroke-miterlimit:10;}
	.st4{fill:none;stroke:#203145;stroke-linecap:round;stroke-miterlimit:10;}
</style>
<path class="st0" d="M44.8,197.8c0,0-24.8-14.2-20.2-26.8c4.6-12.6,37.9,2.5,47,7.6c9,5.1,21.7,14.2,21.7,14.2s60.6-40,67.7-23.2  c7.1,16.7-39.4,39.4-54.6,39.4c-15.2,0-26.8,0-26.8,0l-3.1-8.6L44.8,197.8z"></path>
<path class="st1" d="M48.4,195.6c0,0-6.7,1.8-8.1,8.1c-1.3,6.1,6.4,5.3,12.1,5.3c5.7,0,72.8,0,83.9,0s13.1-9.6,2.7-12.6"></path>
<path class="st1" d="M82.8,121.3c0,0-11.7,2.7-21.7,19.1c-10.1,16.4-7.6,30.8-7.6,30.8"></path>
<path class="st1" d="M56,149.8h13.7l-2.5,20c0,0,21.7,13.4,25.2,14.1"></path>
<path class="st1" d="M77.2,123.8c0,0,3.3,8.4,17.3,7.3c14-1.1,15.7-8.4,15.7-8.4"></path>
<path class="st1" d="M153.2,168.4l7.4-22.3h-50.8c0,0-7.4,28.8-7.4,30.1l-16.2,11.9"></path>
<path class="st0" d="M129.9,136.4c-6.3-1.2-2.1-6-5.3-12.9c-4.6-9.9-10-2.9-13.8-8.1c-3.8-5.3-5.7-24.3-15.7-26.6  c-10-2.4-17.1,4.3-14.7,18.6c2.4,14.3-0.1,11.8-3.4,22c-3.9,12,9,14.2,9,14.2l1.4-13.8l-0.2,0.3l1.2-29.2c0,0,3.5,1.1,8.5,1.2  c4.9,0.1,5.8-0.6,5.8-0.6s0.5,11.1-4.6,12.9c-3.6,1.2-4.2,4.6-4.3,6.4c3.2,0.8,7.6,2.2,12.6,4.8c12.4,6.6,17.7,13.4,21.4,20.7h4.7  C133.4,140.7,133.7,137.1,129.9,136.4z"></path>
<path class="st1" d="M102.5,176.3h22.3"></path>
<path class="st1" d="M46.4,91.2c-1.4,0-2.8,0.5-3.9,1.7c-2.2,2.3-2.2,5.9,0,8.1l8.7,9.1c0.2,0.3,0.6,0.3,0.8,0c2.9-3,5.8-6,8.7-9.1  c2.2-2.3,2.2-5.9,0-8.1c-2.2-2.3-5.7-2.3-7.9,0l-1.2,1.2l-1.2-1.2C49.2,91.6,47.7,91.2,46.4,91.2z"></path>
<path class="st1" d="M67.5,62.3c-0.9,0-1.8,0.4-2.5,1.1c-1.4,1.5-1.4,3.8,0,5.3l5.5,5.8c0.2,0.2,0.4,0.2,0.5,0  c1.8-1.9,3.7-3.9,5.5-5.8c1.4-1.5,1.4-3.8,0-5.3c-1.4-1.5-3.7-1.5-5,0l-0.8,0.8L70,63.3C69.3,62.5,68.3,62.3,67.5,62.3z"></path>
<path class="st2" d="M109.8,146.3l93.6-109.1"></path>
<path class="st2" d="M249.3,167.6l115.1-9.5"></path>
<path class="st2" d="M151,177l85.4-8.1"></path>
<path class="st1" d="M403,94l32.9-26.5l-1,29.4L403,94z"></path>
<path class="st1" d="M435.9,67.5l-17.4,28l2.5,9.5l3.5-9"></path>
<path class="st0" d="M236.6,166.1l40.3,7.5l-12.4,22.1L236.6,166.1z M233.5,164.4l31.4,33.1l13.8-24.7L233.5,164.4z"></path>
<path class="st0" d="M264.9,197.5l-12.7,4.8l-18.7-37.9L264.9,197.5z"></path>
<path class="st1" d="M378.1,146v-24.2V37.2H203.4v118h97.3h65.6"></path>
<path class="st1" d="M378.1,47.6H203.6"></path>
<path class="st1" d="M231,37.3v10.3"></path>
<path class="st1" d="M259.4,104h-41.5v35.3h41.5V104z"></path>
<path class="st1" d="M312,104h-41.5v35.3H312V104z"></path>
<path class="st1" d="M364.5,58.8h-68.6v35.3h68.6V58.8z"></path>
<path class="st1" d="M286.4,58.8h-68.6v35.3h68.6V58.8z"></path>
<path class="st1" d="M364.4,103.9l-41.5,0.3l0.2,35.3l41.5-0.3L364.4,103.9z"></path>
<path class="st1" d="M378,72h14v62.2h-13.7"></path>
<path class="st0" d="M382.8,134H378V72.2h0.8L382.8,134z"></path>
<path class="st1" d="M387.3,11.9h-33.5"></path>
<path class="st1" d="M382.2,21.4h-23.8"></path>
<path class="st1" d="M346.5,11.9h-12.4"></path>
<path class="st0" d="M385.5,176.8c-10.1,0-18.2-8.1-18.2-18.2c0-2.8,0.6-5.6,1.8-8c-3.4,3.3-5.5,8-5.5,13.1  c0,10.2,8.2,18.3,18.3,18.3c7.5,0,13.9-4.5,16.7-10.9C395.4,174.7,390.8,176.8,385.5,176.8z"></path>
<path class="st1" d="M381.9,181.8c10.1,0,18.3-8.1,18.3-18.3c0-10.1-8.1-18.3-18.3-18.3c-10.1,0-18.3,8.1-18.3,18.3  C363.6,173.5,371.8,181.8,381.9,181.8z"></path>
<path class="st1" d="M228.1,67.8h33.6"></path>
<path class="st1" d="M228.1,76.2h17.3"></path>
<path class="st1" d="M226,112.8h17.3"></path>
<path class="st1" d="M226,119.3h11.4"></path>
<path class="st1" d="M278.9,112.8h17.3"></path>
<path class="st1" d="M278.9,119.3h11.3"></path>
<path class="st1" d="M331.1,112.8h17.3"></path>
<path class="st1" d="M331.1,119.3h11.4"></path>
<path class="st1" d="M306.4,67.8h33.5"></path>
<path class="st1" d="M306.4,76.2h17.3"></path>
<path class="st3" d="M0.9,209.2h474.9"></path>
<path class="st1" d="M178.3,38.7h-70.1c-2.8,0-5-2.2-5-5V17.1c0-2.8,2.2-5,5-5h70.1c2.8,0,5,2.2,5,5v16.6  C183.3,36.5,181,38.7,178.3,38.7z"></path>
<g>
	<path class="st4" d="M138,20.2h-23.9"></path>
	<path class="st4" d="M138,27h-23.9"></path>
	<path class="st4" d="M138,23.6h-12.5"></path>
	<circle class="st1" cx="171.3" cy="23.6" r="3.4"></circle>
	<circle class="st1" cx="160.5" cy="23.6" r="3.4"></circle>
	<circle class="st1" cx="149.5" cy="23.6" r="3.4"></circle>
</g>
<circle class="st1" cx="405.1" cy="23.1" r="12.6"></circle>
<g>
	<path class="st0" d="M404.2,20c0,0.5-0.1,0.9-0.2,1.3c-0.1,0.4-0.3,0.7-0.6,1c-0.2,0.3-0.5,0.4-0.8,0.6c-0.3,0.1-0.6,0.2-1,0.2   s-0.7-0.1-1-0.2s-0.6-0.3-0.8-0.6c-0.2-0.3-0.4-0.6-0.6-1c-0.1-0.4-0.2-0.8-0.2-1.3c0-0.5,0.1-0.9,0.2-1.3c0.1-0.4,0.3-0.7,0.6-1   c0.2-0.3,0.5-0.4,0.8-0.6s0.6-0.2,1-0.2s0.7,0.1,1,0.2c0.3,0.1,0.6,0.3,0.8,0.6c0.2,0.3,0.4,0.6,0.6,1   C404.1,19,404.2,19.5,404.2,20z M403.2,20c0-0.6-0.1-1.2-0.4-1.6c-0.3-0.4-0.6-0.6-1.2-0.6c-0.5,0-0.9,0.2-1.2,0.6   c-0.3,0.4-0.4,0.9-0.4,1.6s0.1,1.2,0.4,1.6c0.3,0.4,0.6,0.6,1.2,0.6c0.5,0,0.9-0.2,1.2-0.6S403.2,20.6,403.2,20z M407.9,17.2h1.1   L402.3,29h-1.1L407.9,17.2z M406.1,26.2c0-0.5,0.1-0.9,0.2-1.3c0.1-0.4,0.3-0.7,0.6-1s0.5-0.4,0.8-0.6c0.3-0.1,0.6-0.2,1-0.2   s0.7,0.1,1,0.2c0.3,0.1,0.6,0.3,0.8,0.6c0.2,0.3,0.4,0.6,0.6,1c0.1,0.4,0.2,0.8,0.2,1.3c0,0.5-0.1,0.9-0.2,1.3   c-0.1,0.4-0.3,0.7-0.6,1c-0.2,0.3-0.5,0.4-0.8,0.6c-0.3,0.1-0.6,0.2-1,0.2s-0.7-0.1-1-0.2c-0.3-0.1-0.6-0.3-0.8-0.6s-0.4-0.6-0.6-1   C406.2,27.1,406.1,26.7,406.1,26.2z M407.1,26.2c0,0.6,0.1,1.2,0.4,1.6s0.6,0.6,1.2,0.6s0.9-0.2,1.2-0.6c0.3-0.4,0.4-0.9,0.4-1.6   s-0.1-1.2-0.4-1.6c-0.3-0.4-0.6-0.6-1.2-0.6s-0.9,0.2-1.2,0.6C407.2,25,407.1,25.5,407.1,26.2z"></path>
</g>
</svg>